<?xml version="1.0" encoding="UTF-8"?>
<svg version="1.1" viewBox="0 0 2048 479" width="555" height="130" xmlns="http://www.w3.org/2000/svg">
<path transform="translate(0)" d="m0 0h2048v479h-2048z" fill="#FDFDFD"/>
<path transform="translate(139,77)" d="m0 0h26l11 2 9 6 6 9 1 151v43l-2 9-4 6-7 6-7 3-7 1h-21l-11-1-9-4-6-5-4-8-1-4v-191l2-8 6-8 8-5z" fill="#148ECE"/>
<path transform="translate(775,175)" d="m0 0h68l25 1 18 4 14 7 9 8 8 13 5 15 1 8v20l-3 15-5 12-8 11-10 8-13 6-13 3-16 1h-80l-1-4 3-2h3v-119l-5-2-2-4z" fill="#020405"/>
<path transform="translate(666,173)" d="m0 0h23l15 3 15 6 11 7 7 6 8 11 4 8 4 13 1 6v18l-4 16-7 13-10 11-14 9-11 5-16 4h-30l-16-4-12-5-12-8-9-9-7-11-5-13-2-17 1-14 5-16 7-12 9-9 14-9 16-6z" fill="#020405"/>
<path transform="translate(1308,173)" d="m0 0h15l14 2 15 5 13 7 10 9 6 7 8 16 3 12v21l-3 12-4 9-6 9-8 9-14 9-14 6-13 3h-28l-17-4-12-5-11-7-11-11-7-11-5-15-1-5v-19l4-16 6-12 9-10 8-7 16-8 13-4z" fill="#4263A4"/>
<path transform="translate(1412,176)" d="m0 0h102l16 3 12 6 7 8 4 9 1 5v15l-3 10-6 8-11 7-10 4-5 1 2 5 14 20 9 12 9 10 10 7-4 2h-30l-22-1 1-3 5-3-1-6-22-32-6-8-33-1 1 46 6 5-1 3h-25l-20-1 2-4 5-1v-118l-3-3-4-3z" fill="#4263A4"/>
<path transform="translate(25,144)" d="m0 0h34l10 3 8 7 4 6 1 6v126l-4 8-8 7-9 3h-37l-9-3-8-6-4-7-1-7v-121l1-7 9-10 9-4z" fill="#FDD05C"/>
<path transform="translate(480,144)" d="m0 0h29l17 3 14 5 32 16 10-1-2 5-14 21-6 8-3-1-4-10-10-7-17-7-12-3-10-1h-12l-14 2-11 4-9 5-10 9-8 14-3 14v12l3 14 7 13 5 6 10 7 11 5 13 3h23l18-4 12-5 11-6 5-6 2-7h3l6 8 8 12 8 13-2 2-5-2-6 1-22 12-16 7-10 3-7 1h-36l-19-4-15-6-11-7-11-9-10-13-7-15-4-15v-26l4-16 8-16 10-13 12-10 15-8 17-5z" fill="#020405"/>
<path transform="translate(1071,168)" d="m0 0 3 1v39l-4-1-2-5-85-1-1 28 53-1 4-4 2-3 3 1v38l-2 1-3-3-1-4-24-1h-31l-1 30 85-1 4-1 2-5 3-1 1 1v39h-3l-2-6-6-1-123-1-1-2 2-3 5-1v-117l-7-7 1-2h24l100-1z" fill="#030608"/>
<path transform="translate(244,169)" d="m0 0h37l11 4 7 8 2 5 1 7-1 100-4 8-7 6-10 3h-35l-9-2-7-5-5-8-1-3v-106l4-8 9-7z" fill="#B4232A"/>
<path transform="translate(1870,169)" d="m0 0h2l1 31-1 7-4-1-1-5h-85l-1 28 55-1 3-6 3 1v37l-4-1-1-6-56-1v31l90-1 1-5 3-1 1 1v38l-4-2-2-4-2-1-126-1 1-4 5-3v-118l-6-4v-2l124-1 2-5z" fill="#4263A4"/>
<path transform="translate(1944,173)" d="m0 0h20l17 3 18 6 14 6 8-1-1 5-13 25-4-2-3-5-14-7-15-4-8-1h-17l-12 3-8 4-3 4v8l5 4 16 3 32 3 17 3 13 5 9 7 6 9 3 8v15l-3 9-7 9-7 6-14 7-17 4h-30l-17-3-15-4-13-5-8 1 1-6 11-26 3 1 3 6 12 6 20 5 10 1h15l10-2 10-4 4-5 1-7-4-5-8-3-25-3-28-3-14-4-8-6-6-7-5-11v-18l4-11 9-10 9-6 14-5z" fill="#4263A4"/>
<path transform="translate(1645,173)" d="m0 0 19 1 16 4 15 6 19 10h8l-2 4-14 21-4 4-5-10-10-6-12-5-8-2-9-1h-9l-16 3-12 6-10 10-6 12-1 3v16l3 10 7 11 11 8 9 4 8 2h23l15-4 15-8 4-5 2-6 4 2 11 16 6 10-4 1-7 1-22 11-18 6-13 2h-17l-19-3-13-5-11-6-12-11-7-10-6-15-2-9v-18l4-15 7-14 8-10 8-7 15-8 14-4z" fill="#4263A4"/>
<path transform="translate(1224,169)" d="m0 0 3 1v37l-5-2-2-4-84-1v29l52-1 4-1 3-5h3v37l-5-2-2-4-55-1 1 50 5 1 1 4-1 1h-24l-21-1v-3l6-3 1-7v-110l-3-3-4-3v-2l125-1 1-5z" fill="#4263A4"/>
<path transform="translate(1307,198)" d="m0 0h15l12 3 10 5 9 9 6 12 1 4v19l-3 10-6 9-7 7-11 6-8 2h-20l-12-4-9-6-8-9-4-8-2-8v-16l3-10 6-9 4-5 9-6 10-4z" fill="#FEFEFE"/>
<path transform="translate(671,198)" d="m0 0h11l14 3 10 6 6 5 6 9 4 14v11l-3 12-6 10-4 5-9 6-10 4-6 1h-16l-13-4-10-7-7-8-5-11-1-4v-18l5-13 7-9 8-6 9-4z" fill="#FEFEFE"/>
<path transform="translate(813,200)" d="m0 0h47l13 4 8 6 6 9 3 7 1 5v21l-4 12-6 8-8 6-13 4-11 1h-35l-1-1z" fill="#FEFEFE"/>
<path transform="translate(1908,334)" d="m0 0 12 1 10 4 8 6 6 10 3 11v13l-3 12-6 9-8 7-10 4h-17l-11-4-10-9-5-10-2-13 1-14 5-12 7-8 10-5z" fill="#04070B"/>
<path transform="translate(1966,335)" d="m0 0 7 2 14 18 13 17 10 13 2 1v-50l4-1h8l1 1v72l-2 3h-6l-7-6-10-13-14-18-11-14-1 35-1 15-4 1-8-1v-74z" fill="#04070A"/>
<path transform="translate(1666,332)" d="m0 0h7l1 16v14l-1 2 10-7 4-1h9l8 3 5 4 5 10 1 5v12l-4 11-4 5-8 4-3 1h-10l-8-4-5-5v7l-2 2h-5l-1-1v-77z" fill="#050A0F"/>
<path transform="translate(1613,332)" d="m0 0h6l1 1v77l-1 1h-5l-1-1v-8l-9 7-5 2h-10l-9-4-7-8-3-12 1-13 4-9 8-7 6-2h9l8 3 5 5 1-31z" fill="#050A0E"/>
<path transform="translate(1201,356)" d="m0 0h8l8 3 5 5 4 6 2 8v13l-4 10-4 5-7 4-4 1h-10l-8-4-4-3-1-1v29l-1 1h-7v-76h6l1 1v7l8-6 3-2z" fill="#040A0E"/>
<path transform="translate(1452,199)" d="m0 0h46l16 2 5 4 2 4v11l-5 6-9 3h-56l-1-1v-27z" fill="#FEFEFE"/>
<path transform="translate(1910,346)" d="m0 0 12 2 5 4 5 10 1 6v10l-2 9-4 6-6 5-7 2-11-1-7-4-5-8-2-8v-12l3-10 7-8 4-2z" fill="#FEFEFE"/>
<path transform="translate(1805,336)" d="m0 0h63v10l-1 1-23 1-1 62h-13l-1-62-23-1-1-1z" fill="#020303"/>
<path transform="translate(1533,356)" d="m0 0h9l9 3 6 7 3 8v10l-21 1-18-1 2 11 5 6 4 2h14l10-4 3 1-1 5-6 4-6 2h-13l-10-4-7-8-3-7v-15l4-11 9-8z" fill="#050B10"/>
<path transform="translate(1128,335)" d="m0 0h18l11 4 6 5-1 5-5-1-10-4-6-1h-8l-9 3-4 5-1 7 2 7 9 3 22 5 8 5 3 4 1 3v11l-5 8-8 5-7 2h-14l-12-3-8-4v-8l4 1 9 4 10 2h8l9-3 4-4 1-9-4-5-28-7-8-5-4-6-1-3v-9l4-8 7-6z" fill="#050B10"/>
<path transform="translate(1259,363)" d="m0 0h9l6 3 4 5 2 6v13l-3 8-6 5-3 1h-11l-6-4-4-8-1-11 2-8 4-6 4-3z" fill="#FEFEFE"/>
<path transform="translate(1591,363)" d="m0 0h9l7 4 4 5 1 3v18l-4 6-5 4-3 1h-11l-6-4-4-8v-16l4-8 5-4z" fill="#FEFEFE"/>
<path transform="translate(1198,363)" d="m0 0h10l7 4 4 8v17l-3 6-6 5-2 1h-11l-6-4-4-6-1-3v-15l4-8z" fill="#FEFEFE"/>
<path transform="translate(1434,363)" d="m0 0h9l6 3 4 5 2 5v16l-3 6-6 5-2 1h-11l-5-3-4-4-2-6v-14l3-8 6-5z" fill="#FEFEFE"/>
<path transform="translate(1685,363)" d="m0 0h9l6 3 5 6 1 3v17l-3 6-6 5-2 1h-11l-6-4-4-6-1-3v-14l3-8 6-5z" fill="#FEFEFE"/>
<path transform="translate(1434,356)" d="m0 0h9l9 3 6 5 4 7 2 13-2 12-5 8-7 5-6 2h-11l-8-3-6-5-5-10-1-12 3-12 6-8 7-4zm0 7-6 3-4 5-2 6v14l3 7 5 5 3 1h11l6-4 4-5 1-3v-16l-4-8-5-4-3-1z" fill="#050B10"/>
<path transform="translate(1722,357)" d="m0 0h8l3 5 11 27 3 10h2l2-6 13-32 1-3 2-1h7l-1 5-8 20-15 34-6 10-7 5-9 3-3-3-1-3 9-4 7-6 2-5-1-9-14-33-5-12z" fill="#050B10"/>
<path transform="translate(1259,356)" d="m0 0h9l9 3 5 4 6 12 1 10-2 11-6 9-8 5-4 1h-11l-10-4-6-7-3-7-1-11 2-11 5-8 5-4zm0 7-6 3-4 5-2 4-1 12 3 10 4 5 4 2h11l6-3 4-5 2-6v-13l-3-8-6-5-3-1z" fill="#050B10"/>
<path transform="translate(1324,356)" d="m0 0h9l8 3 5 7 1 3v41l-7 1-1-1-1-39-4-6-3-1h-9l-6 3-4 5-1 3-1 35-1 1h-6l-1-1-1-52 1-1h7v8l11-8z" fill="#04070A"/>
<path transform="translate(1378,356)" d="m0 0h11l10 4 3 5-1 2-6-1-6-2h-12l-5 3-1 6 3 5 20 5 5 3 3 4 1 7-3 7-6 5-6 2h-13l-11-4-3-4 1-3 6 1 5 2h16l4-2 1-2v-7l-7-3-16-4-5-3-3-5v-10l4-6 6-4z" fill="#060D13"/>
<path transform="translate(1500,356)" d="m0 0h5l2 4-1 4h-8l-8 4-3 4-1 5-1 33-1 1h-6l-1-1v-53h7l1 4-1 3 7-4 4-3z" fill="#04080C"/>
<path transform="translate(1536,362)" d="m0 0 8 1 6 4 4 11-1 1h-32l1-7 7-8z" fill="#FEFEFE"/>
</svg>
